<mxfile host="app.diagrams.net" agent="Mozilla/5.0 (Windows NT 10.0; Win64; x64) AppleWebKit/537.36 (KHTML, like Gecko) Chrome/140.0.0.0 Safari/537.36" version="28.2.5">
  <diagram name="Страница — 1" id="gX8MxNKpgYdfbyds3_O8">
    <mxGraphModel dx="827" dy="1104" grid="1" gridSize="10" guides="1" tooltips="1" connect="1" arrows="1" fold="1" page="1" pageScale="1" pageWidth="827" pageHeight="1169" math="0" shadow="0">
      <root>
        <mxCell id="0" />
        <mxCell id="1" parent="0" />
        <mxCell id="r-35M36EyAP5MWoKui4L-4" style="edgeStyle=none;curved=1;rounded=0;orthogonalLoop=1;jettySize=auto;html=1;exitX=1;exitY=0.5;exitDx=0;exitDy=0;entryX=0;entryY=0.5;entryDx=0;entryDy=0;fontSize=12;startSize=8;endSize=8;" parent="1" source="r-35M36EyAP5MWoKui4L-1" target="r-35M36EyAP5MWoKui4L-41" edge="1">
          <mxGeometry relative="1" as="geometry">
            <mxPoint x="294" y="740" as="targetPoint" />
          </mxGeometry>
        </mxCell>
        <mxCell id="r-35M36EyAP5MWoKui4L-11" value="Отправляет&lt;div&gt;обновления&lt;/div&gt;&lt;div&gt;каталога&lt;/div&gt;" style="edgeLabel;html=1;align=center;verticalAlign=middle;resizable=0;points=[];fontSize=12;" parent="r-35M36EyAP5MWoKui4L-4" vertex="1" connectable="0">
          <mxGeometry x="-0.0448" y="1" relative="1" as="geometry">
            <mxPoint as="offset" />
          </mxGeometry>
        </mxCell>
        <mxCell id="r-35M36EyAP5MWoKui4L-1" value="Администратор" style="rounded=0;whiteSpace=wrap;html=1;" parent="1" vertex="1">
          <mxGeometry x="40" y="710" width="120" height="60" as="geometry" />
        </mxCell>
        <mxCell id="r-35M36EyAP5MWoKui4L-7" style="edgeStyle=none;curved=1;rounded=0;orthogonalLoop=1;jettySize=auto;html=1;fontSize=12;startSize=8;endSize=8;" parent="1" source="r-35M36EyAP5MWoKui4L-2" edge="1">
          <mxGeometry relative="1" as="geometry">
            <mxPoint x="320" y="1122.142857142857" as="targetPoint" />
          </mxGeometry>
        </mxCell>
        <mxCell id="r-35M36EyAP5MWoKui4L-10" value="Отправляет заявку&lt;div&gt;&amp;nbsp;на покупку&lt;/div&gt;" style="edgeLabel;html=1;align=center;verticalAlign=middle;resizable=0;points=[];fontSize=12;" parent="r-35M36EyAP5MWoKui4L-7" vertex="1" connectable="0">
          <mxGeometry x="-0.025" y="-1" relative="1" as="geometry">
            <mxPoint as="offset" />
          </mxGeometry>
        </mxCell>
        <mxCell id="r-35M36EyAP5MWoKui4L-39" value="" style="edgeStyle=none;curved=1;rounded=0;orthogonalLoop=1;jettySize=auto;html=1;fontSize=12;startSize=8;endSize=8;" parent="1" source="r-35M36EyAP5MWoKui4L-2" target="r-35M36EyAP5MWoKui4L-35" edge="1">
          <mxGeometry relative="1" as="geometry" />
        </mxCell>
        <mxCell id="r-35M36EyAP5MWoKui4L-40" value="&lt;span style=&quot;font-family: Arial, sans-serif; font-size: medium; text-align: start; text-wrap-mode: wrap;&quot;&gt;Производит&lt;/span&gt;&lt;div&gt;&lt;span style=&quot;font-family: Arial, sans-serif; font-size: medium; text-align: start; text-wrap-mode: wrap;&quot;&gt;оплату&lt;/span&gt;&lt;/div&gt;" style="edgeLabel;html=1;align=center;verticalAlign=middle;resizable=0;points=[];fontSize=12;" parent="r-35M36EyAP5MWoKui4L-39" vertex="1" connectable="0">
          <mxGeometry x="-0.0245" y="-2" relative="1" as="geometry">
            <mxPoint as="offset" />
          </mxGeometry>
        </mxCell>
        <mxCell id="r-35M36EyAP5MWoKui4L-2" value="Клиент" style="rounded=0;whiteSpace=wrap;html=1;" parent="1" vertex="1">
          <mxGeometry x="40" y="1090" width="120" height="60" as="geometry" />
        </mxCell>
        <mxCell id="r-35M36EyAP5MWoKui4L-12" style="edgeStyle=none;curved=1;rounded=0;orthogonalLoop=1;jettySize=auto;html=1;exitX=1;exitY=0.5;exitDx=0;exitDy=0;fontSize=12;startSize=8;endSize=8;entryX=0;entryY=0.5;entryDx=0;entryDy=0;" parent="1" target="r-35M36EyAP5MWoKui4L-13" edge="1">
          <mxGeometry relative="1" as="geometry">
            <mxPoint x="500" y="780" as="targetPoint" />
            <mxPoint x="414" y="740" as="sourcePoint" />
          </mxGeometry>
        </mxCell>
        <mxCell id="r-35M36EyAP5MWoKui4L-14" value="Сохраняет и&lt;div&gt;обновляет&amp;nbsp;&lt;/div&gt;&lt;div&gt;каталог&lt;/div&gt;" style="edgeLabel;html=1;align=center;verticalAlign=middle;resizable=0;points=[];fontSize=12;" parent="r-35M36EyAP5MWoKui4L-12" vertex="1" connectable="0">
          <mxGeometry x="-0.1887" y="-2" relative="1" as="geometry">
            <mxPoint x="42" y="-2" as="offset" />
          </mxGeometry>
        </mxCell>
        <mxCell id="r-35M36EyAP5MWoKui4L-17" style="edgeStyle=none;curved=1;rounded=0;orthogonalLoop=1;jettySize=auto;html=1;exitX=1;exitY=0.5;exitDx=0;exitDy=0;entryX=0;entryY=0.5;entryDx=0;entryDy=0;fontSize=12;startSize=8;endSize=8;" parent="1" edge="1">
          <mxGeometry relative="1" as="geometry">
            <mxPoint x="440" y="1120" as="sourcePoint" />
            <mxPoint x="630" y="1120" as="targetPoint" />
          </mxGeometry>
        </mxCell>
        <mxCell id="r-35M36EyAP5MWoKui4L-18" value="Проверяет&amp;nbsp;&lt;div&gt;наличие,&lt;div&gt;оформляет заказ&lt;/div&gt;&lt;/div&gt;" style="edgeLabel;html=1;align=center;verticalAlign=middle;resizable=0;points=[];fontSize=12;" parent="r-35M36EyAP5MWoKui4L-17" vertex="1" connectable="0">
          <mxGeometry x="-0.0667" relative="1" as="geometry">
            <mxPoint x="12" y="10" as="offset" />
          </mxGeometry>
        </mxCell>
        <mxCell id="r-35M36EyAP5MWoKui4L-13" value="Каталог&lt;div&gt;товаров&lt;/div&gt;" style="shape=datastore;whiteSpace=wrap;html=1;" parent="1" vertex="1">
          <mxGeometry x="615" y="697.5" width="90" height="85" as="geometry" />
        </mxCell>
        <mxCell id="r-35M36EyAP5MWoKui4L-22" style="edgeStyle=none;curved=1;rounded=0;orthogonalLoop=1;jettySize=auto;html=1;exitX=0;exitY=0.25;exitDx=0;exitDy=0;entryX=1;entryY=0.25;entryDx=0;entryDy=0;fontSize=12;startSize=8;endSize=8;" parent="1" target="r-35M36EyAP5MWoKui4L-21" edge="1">
          <mxGeometry relative="1" as="geometry">
            <mxPoint x="630" y="1087.5" as="sourcePoint" />
          </mxGeometry>
        </mxCell>
        <mxCell id="r-35M36EyAP5MWoKui4L-24" value="Обновляет складские&amp;nbsp;&lt;div&gt;остатки, подтверждает&lt;/div&gt;&lt;div&gt;наличие&lt;/div&gt;" style="edgeLabel;html=1;align=center;verticalAlign=middle;resizable=0;points=[];fontSize=12;" parent="r-35M36EyAP5MWoKui4L-22" vertex="1" connectable="0">
          <mxGeometry x="-0.0222" y="6" relative="1" as="geometry">
            <mxPoint y="-23" as="offset" />
          </mxGeometry>
        </mxCell>
        <mxCell id="r-35M36EyAP5MWoKui4L-26" value="" style="edgeStyle=none;curved=1;rounded=0;orthogonalLoop=1;jettySize=auto;html=1;fontSize=12;startSize=8;endSize=8;" parent="1" target="r-35M36EyAP5MWoKui4L-25" edge="1">
          <mxGeometry relative="1" as="geometry">
            <mxPoint x="700" y="1140" as="sourcePoint" />
          </mxGeometry>
        </mxCell>
        <mxCell id="r-35M36EyAP5MWoKui4L-27" value="&lt;span style=&quot;font-family: Arial, sans-serif; font-size: medium; text-align: start; text-wrap-mode: wrap;&quot;&gt;Отправляет заказы&lt;/span&gt;&lt;div&gt;&lt;span style=&quot;font-family: Arial, sans-serif; font-size: medium; text-align: start; text-wrap-mode: wrap;&quot;&gt;поставщикам&amp;nbsp;&lt;/span&gt;&lt;span style=&quot;font-family: Arial, sans-serif; font-size: medium; text-align: start; text-wrap-mode: wrap; background-color: light-dark(#ffffff, var(--ge-dark-color, #121212)); color: light-dark(rgb(0, 0, 0), rgb(255, 255, 255));&quot;&gt;на&lt;/span&gt;&lt;/div&gt;&lt;div&gt;&lt;span style=&quot;font-family: Arial, sans-serif; font-size: medium; text-align: start; text-wrap-mode: wrap; background-color: light-dark(#ffffff, var(--ge-dark-color, #121212)); color: light-dark(rgb(0, 0, 0), rgb(255, 255, 255));&quot;&gt;пополнение товара&lt;/span&gt;&lt;/div&gt;" style="edgeLabel;html=1;align=center;verticalAlign=middle;resizable=0;points=[];fontSize=12;" parent="r-35M36EyAP5MWoKui4L-26" vertex="1" connectable="0">
          <mxGeometry x="-0.1127" y="2" relative="1" as="geometry">
            <mxPoint x="2" y="-38" as="offset" />
          </mxGeometry>
        </mxCell>
        <mxCell id="r-35M36EyAP5MWoKui4L-20" value="&lt;span style=&quot;font-family: Arial, sans-serif; font-size: medium; text-align: start; background-color: rgb(255, 255, 255);&quot;&gt;Управление поставками и складом&lt;/span&gt;" style="rounded=1;whiteSpace=wrap;html=1;" parent="1" vertex="1">
          <mxGeometry x="630" y="1070" width="140" height="70" as="geometry" />
        </mxCell>
        <mxCell id="r-35M36EyAP5MWoKui4L-21" value="&lt;span style=&quot;font-family: Arial, sans-serif; font-size: medium; text-align: start; background-color: rgb(255, 255, 255);&quot;&gt;Обработка заказов клиентов&lt;/span&gt;" style="rounded=1;whiteSpace=wrap;html=1;" parent="1" vertex="1">
          <mxGeometry x="320" y="1070" width="130" height="70" as="geometry" />
        </mxCell>
        <mxCell id="r-35M36EyAP5MWoKui4L-25" value="Поставщик" style="rounded=0;whiteSpace=wrap;html=1;" parent="1" vertex="1">
          <mxGeometry x="640" y="860" width="120" height="60" as="geometry" />
        </mxCell>
        <mxCell id="r-35M36EyAP5MWoKui4L-31" style="edgeStyle=none;curved=1;rounded=0;orthogonalLoop=1;jettySize=auto;html=1;exitX=0;exitY=0.5;exitDx=0;exitDy=0;fontSize=12;startSize=8;endSize=8;" parent="1" source="r-35M36EyAP5MWoKui4L-28" target="r-35M36EyAP5MWoKui4L-29" edge="1">
          <mxGeometry relative="1" as="geometry" />
        </mxCell>
        <mxCell id="r-35M36EyAP5MWoKui4L-32" value="Получает&lt;div&gt;уведомления&lt;/div&gt;&lt;div&gt;о нарушениях&lt;/div&gt;" style="edgeLabel;html=1;align=center;verticalAlign=middle;resizable=0;points=[];fontSize=12;" parent="r-35M36EyAP5MWoKui4L-31" vertex="1" connectable="0">
          <mxGeometry x="0.1241" y="-4" relative="1" as="geometry">
            <mxPoint x="25" y="4" as="offset" />
          </mxGeometry>
        </mxCell>
        <mxCell id="u7RMYYYZKevlQnle9KOF-2" style="edgeStyle=orthogonalEdgeStyle;rounded=0;orthogonalLoop=1;jettySize=auto;html=1;exitX=1;exitY=0.5;exitDx=0;exitDy=0;entryX=0;entryY=0.5;entryDx=0;entryDy=0;" edge="1" parent="1" source="r-35M36EyAP5MWoKui4L-28" target="u7RMYYYZKevlQnle9KOF-1">
          <mxGeometry relative="1" as="geometry" />
        </mxCell>
        <mxCell id="u7RMYYYZKevlQnle9KOF-3" value="Проверка&amp;nbsp;&lt;div&gt;безопасности&lt;/div&gt;" style="edgeLabel;html=1;align=center;verticalAlign=middle;resizable=0;points=[];" vertex="1" connectable="0" parent="u7RMYYYZKevlQnle9KOF-2">
          <mxGeometry x="-0.0964" relative="1" as="geometry">
            <mxPoint as="offset" />
          </mxGeometry>
        </mxCell>
        <mxCell id="r-35M36EyAP5MWoKui4L-28" value="Служба безопасности" style="rounded=0;whiteSpace=wrap;html=1;" parent="1" vertex="1">
          <mxGeometry x="354" y="540" width="120" height="60" as="geometry" />
        </mxCell>
        <mxCell id="r-35M36EyAP5MWoKui4L-33" style="edgeStyle=none;curved=1;rounded=0;orthogonalLoop=1;jettySize=auto;html=1;exitX=0.5;exitY=1;exitDx=0;exitDy=0;entryX=0.5;entryY=0;entryDx=0;entryDy=0;fontSize=12;startSize=8;endSize=8;" parent="1" source="r-35M36EyAP5MWoKui4L-29" target="r-35M36EyAP5MWoKui4L-1" edge="1">
          <mxGeometry relative="1" as="geometry" />
        </mxCell>
        <mxCell id="r-35M36EyAP5MWoKui4L-34" value="&lt;span style=&quot;font-family: Arial, sans-serif; font-size: medium; text-align: start; text-wrap-mode: wrap;&quot;&gt;Контролирует доступ&amp;nbsp;&lt;/span&gt;&lt;div&gt;&lt;span style=&quot;font-family: Arial, sans-serif; font-size: medium; text-align: start; text-wrap-mode: wrap;&quot;&gt;и генерирует отчеты&lt;/span&gt;&lt;/div&gt;" style="edgeLabel;html=1;align=center;verticalAlign=middle;resizable=0;points=[];fontSize=12;" parent="r-35M36EyAP5MWoKui4L-33" vertex="1" connectable="0">
          <mxGeometry x="0.0375" relative="1" as="geometry">
            <mxPoint as="offset" />
          </mxGeometry>
        </mxCell>
        <mxCell id="r-35M36EyAP5MWoKui4L-29" value="Обеспечение&amp;nbsp;&lt;div&gt;безопасности&lt;/div&gt;" style="rounded=1;whiteSpace=wrap;html=1;" parent="1" vertex="1">
          <mxGeometry x="40" y="540" width="120" height="60" as="geometry" />
        </mxCell>
        <mxCell id="r-35M36EyAP5MWoKui4L-36" value="" style="edgeStyle=none;curved=1;rounded=0;orthogonalLoop=1;jettySize=auto;html=1;fontSize=12;startSize=8;endSize=8;" parent="1" source="r-35M36EyAP5MWoKui4L-35" target="r-35M36EyAP5MWoKui4L-1" edge="1">
          <mxGeometry relative="1" as="geometry" />
        </mxCell>
        <mxCell id="r-35M36EyAP5MWoKui4L-38" value="&lt;span style=&quot;font-family: Arial, sans-serif; font-size: medium; text-align: start; text-wrap-mode: wrap;&quot;&gt;Получает данные&lt;/span&gt;&lt;div&gt;&lt;span style=&quot;font-family: Arial, sans-serif; font-size: medium; text-align: start; text-wrap-mode: wrap;&quot;&gt;продаж и оплаты&lt;/span&gt;&lt;/div&gt;" style="edgeLabel;html=1;align=center;verticalAlign=middle;resizable=0;points=[];fontSize=12;" parent="r-35M36EyAP5MWoKui4L-36" vertex="1" connectable="0">
          <mxGeometry x="-0.0966" y="-5" relative="1" as="geometry">
            <mxPoint as="offset" />
          </mxGeometry>
        </mxCell>
        <mxCell id="r-35M36EyAP5MWoKui4L-35" value="&lt;span style=&quot;font-family: Arial, sans-serif; font-size: medium; text-align: start; background-color: rgb(255, 255, 255);&quot;&gt;Финансовый учет и отчетность&lt;/span&gt;" style="rounded=0;whiteSpace=wrap;html=1;" parent="1" vertex="1">
          <mxGeometry x="40" y="910" width="120" height="60" as="geometry" />
        </mxCell>
        <mxCell id="r-35M36EyAP5MWoKui4L-41" value="&lt;span style=&quot;font-family: Arial, sans-serif; font-size: medium; text-align: start; background-color: rgb(255, 255, 255);&quot;&gt;Управление каталогом товара&lt;/span&gt;" style="rounded=1;whiteSpace=wrap;html=1;" parent="1" vertex="1">
          <mxGeometry x="354" y="710" width="120" height="60" as="geometry" />
        </mxCell>
        <mxCell id="u7RMYYYZKevlQnle9KOF-1" value="Информация&lt;div&gt;о нарушениях&lt;/div&gt;" style="shape=datastore;whiteSpace=wrap;html=1;" vertex="1" parent="1">
          <mxGeometry x="615" y="523.75" width="90" height="92.5" as="geometry" />
        </mxCell>
        <mxCell id="u7RMYYYZKevlQnle9KOF-4" value="Шарифзаде Гюлар&lt;div&gt;ДКИП-381&lt;/div&gt;" style="text;html=1;align=center;verticalAlign=middle;resizable=0;points=[];autosize=1;strokeColor=none;fillColor=none;" vertex="1" parent="1">
          <mxGeometry x="345" y="883" width="130" height="40" as="geometry" />
        </mxCell>
      </root>
    </mxGraphModel>
  </diagram>
</mxfile>
